<svg width="809" height="319" viewBox="0 0 809 319" fill="none" xmlns="http://www.w3.org/2000/svg">
<path d="M70 269L18.4 129H42.2L71.8 211.2C72.8667 214.133 73.9333 217.267 75 220.6C76.0667 223.933 77.1333 227.333 78.2 230.8C79.2667 234.133 80.2667 237.4 81.2 240.6C82.1333 243.667 83 246.533 83.8 249.2L75 249C76.3333 245.4 77.8 241.467 79.4 237.2C81.1333 232.8 82.9333 228.4 84.8 224C86.6667 219.467 88.4667 215.2 90.2 211.2L116 153.2H136.8L161.8 210.8C163.533 214.533 165.267 218.6 167 223C168.867 227.4 170.6 231.667 172.2 235.8C173.933 239.933 175.2 243.733 176 247.2L168 248.6C168.667 246.333 169.333 244 170 241.6C170.8 239.067 171.6 236.467 172.4 233.8C173.2 231 174.067 228.267 175 225.6C175.933 222.8 176.867 220.067 177.8 217.4C178.867 214.733 179.867 212.2 180.8 209.8L213.6 129H236.8L179.2 269H164.2L123.6 174.8L127.4 175.6L86.6 269H70ZM293.273 269V247.6H329.873V150.4H293.273V129H388.073V150.4H351.473V247.6H388.073V269H293.273ZM499.177 269V149.8H445.977V129H575.177V149.8H520.777V269H499.177ZM750.917 269V129H772.517V269H750.917ZM631.517 269V129H653.117V269H631.517ZM640.917 210.4L641.117 189.6H760.517V210.4H640.917Z" fill="white"/>
<path d="M18 77V1.48H25.68V77H18ZM41.04 77V1.48H44.88V77H41.04ZM48.72 77V1.48H52.56V77H48.72ZM60.25 77V1.48H64.09V77H60.25ZM71.77 77V1.48H87.13V77H71.77ZM94.81 77V1.48H98.65V77H94.81ZM102.5 77V1.48H110.18V77H102.5ZM125.54 77V1.48H129.38V77H125.54ZM137.06 77V1.48H140.9V77H137.06ZM144.75 77V1.48H148.59V77H144.75ZM163.95 77V1.48H171.63V77H163.95ZM175.47 77V1.48H179.31V77H175.47ZM187 77V1.48H202.36V77H187ZM206.2 77V1.48H210.04V77H206.2ZM217.72 77V1.48H221.56V77H217.72ZM229.25 77V1.48H233.09V77H229.25ZM236.93 77V1.48H244.61V77H236.93ZM252.29 77V1.48H256.13V77H252.29Z" fill="white"/>
</svg>
