<svg width="1360" height="172" viewBox="0 0 1360 172" fill="none" xmlns="http://www.w3.org/2000/svg">
<path d="M52 140L0.400002 -9.53674e-06H24.2L53.8 82.2C54.8667 85.1333 55.9333 88.2667 57 91.6C58.0667 94.9333 59.1333 98.3333 60.2 101.8C61.2667 105.133 62.2667 108.4 63.2 111.6C64.1333 114.667 65 117.533 65.8 120.2L57 120C58.3333 116.4 59.8 112.467 61.4 108.2C63.1333 103.8 64.9333 99.4 66.8 95C68.6667 90.4667 70.4667 86.2 72.2 82.2L98 24.2H118.8L143.8 81.8C145.533 85.5333 147.267 89.6 149 94C150.867 98.4 152.6 102.667 154.2 106.8C155.933 110.933 157.2 114.733 158 118.2L150 119.6C150.667 117.333 151.333 115 152 112.6C152.8 110.067 153.6 107.467 154.4 104.8C155.2 102 156.067 99.2667 157 96.6C157.933 93.8 158.867 91.0667 159.8 88.4C160.867 85.7333 161.867 83.2 162.8 80.8L195.6 -9.53674e-06H218.8L161.2 140H146.2L105.6 45.8L109.4 46.6L68.6 140H52ZM275.273 140V118.6H311.873V21.4H275.273V-9.53674e-06H370.073V21.4H333.473V118.6H370.073V140H275.273ZM481.177 140V20.8H427.977V-9.53674e-06H557.177V20.8H502.777V140H481.177ZM732.917 140V-9.53674e-06H754.517V140H732.917ZM613.517 140V-9.53674e-06H635.117V140H613.517ZM622.917 81.4L623.117 60.6H742.517V81.4H622.917ZM815.984 172V153.4H946.784V172H815.984ZM1008.24 140V-9.53674e-06H1029.44L1093.24 79H1085.64L1149.44 -9.53674e-06H1170.64V140H1149.04V80.6C1149.04 69.5333 1149.31 59.1333 1149.84 49.4C1150.38 39.6667 1151.44 29.7333 1153.04 19.6L1155.24 27.8L1096.04 99.8H1082.84L1023.64 27.8L1025.84 19.6C1027.44 29.7333 1028.51 39.6667 1029.04 49.4C1029.58 59.1333 1029.84 69.5333 1029.84 80.6V140H1008.24ZM1243.4 140V-9.53674e-06H1359.6V20.8H1265V119.2H1359.6V140H1243.4ZM1255.2 78.6V57.8H1348.6V78.6H1255.2Z" fill="white"/>
</svg>
